<?xml version="1.0" encoding="utf-8"?>
<!-- Generator: Adobe Illustrator 18.1.1, SVG Export Plug-In . SVG Version: 6.00 Build 0)  -->
<!DOCTYPE svg PUBLIC "-//W3C//DTD SVG 1.1//EN" "http://www.w3.org/Graphics/SVG/1.1/DTD/svg11.dtd">
<svg version="1.1" id="Layer_1" xmlns="http://www.w3.org/2000/svg" xmlns:xlink="http://www.w3.org/1999/xlink" x="0px" y="0px"
	  viewBox="10 10 30 30" enable-background="new 0 0 0 0" xml:space="preserve">
<path d="m25 10c-8.3 0-15 6.7-15 15 0 6.6 4.3 12.2 10.3 14.2.8.1 1-.3 1-.7v-2.6c-4.2.9-5.1-2-5.1-2-.7-1.7-1.7-2.2-1.7-2.2-1.4-.9.1-.9.1-.9 1.5.1 2.3 1.5 2.3 1.5 1.3 2.3 3.5 1.6 4.4 1.2.1-1 .5-1.6 1-2-3.3-.4-6.8-1.7-6.8-7.4 0-1.6.6-3 1.5-4-.2-.4-.7-1.9.1-4 0 0 1.3-.4 4.1 1.5 1.2-.3 2.5-.5 3.8-.5s2.6.2 3.8.5c2.9-1.9 4.1-1.5 4.1-1.5.8 2.1.3 3.6.1 4 1 1 1.5 2.4 1.5 4 0 5.8-3.5 7-6.8 7.4.5.5 1 1.4 1 2.8v4.1c0 .4.3.9 1 .7 6-2 10.2-7.6 10.2-14.2.1-8.2-6.6-14.9-14.9-14.9z"/></svg>


